<?xml version="1.0" encoding="utf-8"?>
<svg width="23px" height="22px" viewBox="0 0 23 22" version="1.1" xmlns:xlink="http://www.w3.org/1999/xlink" xmlns="http://www.w3.org/2000/svg">
  <desc>Created with Lunacy</desc>
  <path d="M0.0245098 9.844C0.11851 8.563 9.61631 0 10.4603 0C11.3043 0 20.3995 8.375 20.8995 9.802C21.0875 10.865 19.9725 11.125 19.4245 10.768C18.9565 10.518 18.0565 10.209 18.0565 10.209C18.0565 10.209 16.6815 17.917 15.5245 18.771C14.3065 19.49 6.43151 19.49 5.21251 18.771C4.34951 17.016 2.95251 10.229 2.95251 10.229C2.95251 10.229 1.78151 10.518 1.31251 10.768C0.76451 11.125 -0.16249 10.907 0.0245098 9.844ZM10.4605 6.43994C9.21952 6.43994 8.21252 7.44594 8.21252 8.68794C8.21252 9.92894 9.21952 10.9359 10.4605 10.9359C11.7025 10.9359 12.7085 9.92894 12.7085 8.68794C12.7085 7.44594 11.7025 6.43994 10.4605 6.43994Z" transform="translate(1 1)" id="icon" fill="none" fill-rule="evenodd" stroke="#667580" stroke-width="2" />
</svg>