<?xml version="1.0" encoding="utf-8"?>
<svg width="5px" height="17px" viewBox="0 0 5 17" version="1.1" xmlns:xlink="http://www.w3.org/1999/xlink" xmlns="http://www.w3.org/2000/svg">
  <desc>Created with Lunacy</desc>
  <g id="icon/more" transform="translate(0.5 0.5)">
    <path d="M2 4C3.10457 4 4 3.10457 4 2C4 0.895431 3.10457 0 2 0C0.895431 0 0 0.895431 0 2C0 3.10457 0.895431 4 2 4Z" id="Oval" fill="none" stroke="#667580" stroke-width="1" />
    <path d="M2 4C3.10457 4 4 3.10457 4 2C4 0.895431 3.10457 0 2 0C0.895431 0 0 0.895431 0 2C0 3.10457 0.895431 4 2 4Z" transform="translate(0 6)" id="Oval" fill="none" stroke="#667580" stroke-width="1" />
    <path d="M2 4C3.10457 4 4 3.10457 4 2C4 0.895431 3.10457 0 2 0C0.895431 0 0 0.895431 0 2C0 3.10457 0.895431 4 2 4Z" transform="translate(0 12)" id="Oval" fill="none" stroke="#667580" stroke-width="1" />
  </g>
</svg>