<?xml version="1.0" encoding="utf-8"?>
<svg width="21px" height="17px" viewBox="0 0 21 17" version="1.1" xmlns:xlink="http://www.w3.org/1999/xlink" xmlns="http://www.w3.org/2000/svg">
  <desc>Created with Lunacy</desc>
  <path d="M0 14.5694C0.324556 14.6077 0.654806 14.6273 0.989643 14.6273C2.93328 14.6273 4.72211 13.9641 6.14193 12.8515C4.32654 12.8179 2.79445 11.6185 2.26656 9.97032C2.51982 10.0188 2.77973 10.0447 3.04704 10.0447C3.42544 10.0447 3.79193 9.99406 4.14008 9.89924C2.24216 9.51818 0.812202 7.8414 0.812202 5.83135C0.812202 5.81389 0.812202 5.79651 0.812498 5.7792C1.37189 6.08993 2.01153 6.27654 2.69164 6.29806C1.57847 5.55413 0.846004 4.28431 0.846004 2.84504C0.846004 2.08476 1.05059 1.37211 1.40769 0.759392C3.45384 3.2693 6.51071 4.92092 9.95863 5.09392C9.88792 4.7903 9.85116 4.47366 9.85116 4.14851C9.85116 1.85747 11.7087 0 13.9999 0C15.1931 0 16.2713 0.503845 17.0281 1.31013C17.973 1.12404 18.8609 0.778771 19.6625 0.303402C19.3527 1.27211 18.6949 2.08513 17.8384 2.59859C18.6776 2.49829 19.4771 2.27529 20.2211 1.94534C19.6649 2.77729 18.9615 3.50798 18.151 4.09289C18.159 4.27078 18.163 4.4497 18.163 4.62958C18.163 10.1117 13.9902 16.4333 6.35945 16.4333C4.01663 16.4333 1.83594 15.7465 0 14.5694Z" id="Logo-Twitter" fill="#55ACEE" stroke="none" />
</svg>