<?xml version="1.0" encoding="utf-8"?>
<svg width="18px" height="15px" viewBox="0 0 18 15" version="1.1" xmlns:xlink="http://www.w3.org/1999/xlink" xmlns="http://www.w3.org/2000/svg">
  <desc>Created with Lunacy</desc>
  <g id="icon">
    <path d="M8.5002 3.86686L15.5296 0.117844C16.0169 -0.142054 16.6227 0.0422991 16.8826 0.529609C17.1425 1.01692 16.9581 1.62265 16.4708 1.88255L8.97079 5.88255C8.67667 6.03941 8.32373 6.03941 8.02961 5.88255L0.529609 1.88255C0.0422991 1.62265 -0.142054 1.01692 0.117844 0.529609C0.377743 0.0422991 0.983476 -0.142054 1.47079 0.117844L8.5002 3.86686Z" transform="translate(0 3.499756)" id="Shape" fill="#667580" stroke="none" />
    <path d="M2 15L15 15C16.1043 15 17 14.1043 17 13L17 2C17 0.895715 16.1043 0 15 0L2 0C0.895715 0 0 0.895715 0 2L0 13C0 14.1043 0.895715 15 2 15ZM15 2L15 13L2 13L2 2L15 2Z" transform="translate(0.0002441406 0)" id="Shape" fill="#667580" fill-rule="evenodd" stroke="none" />
  </g>
</svg>