<?xml version="1.0" encoding="utf-8"?>
<svg width="16px" height="20px" viewBox="0 0 16 20" version="1.1" xmlns:xlink="http://www.w3.org/1999/xlink" xmlns="http://www.w3.org/2000/svg">
  <desc>Created with Lunacy</desc>
  <path d="M14 13.5L14 8.5C14 5.43 12.37 2.86 9.5 2.18L9.5 1.5C9.5 0.67 8.83 0 8 0C7.17 0 6.5 0.67 6.5 1.5L6.5 2.18C3.64 2.86 2 5.42 2 8.5L2 13.5L0 15.5L0 16.5L16 16.5L16 15.5L14 13.5ZM4 14.5L12 14.5L12 8.5C12 6.02 10.49 4 8 4C5.51 4 4 6.02 4 8.5L4 14.5ZM10 17.5C10 18.6 9.1 19.5 8 19.5C6.9 19.5 6 18.6 6 17.5L10 17.5Z" id="Shape" fill="#667580" fill-rule="evenodd" stroke="none" />
</svg>